<svg width="219.3" height="72.401" viewBox="0 0 219.3 72.401" xmlns="http://www.w3.org/2000/svg"><g id="svgGroup" stroke-linecap="round" fill-rule="evenodd" font-size="9pt" stroke="#000" stroke-width="0.25mm" fill="none" style="stroke:#000;stroke-width:0.25mm;fill:none"><path d="M 62.5 71.2 L 62.5 1.2 L 104.5 1.2 L 104.5 9.4 L 72 9.4 L 72 30.7 L 100 30.7 L 100 38.7 L 72 38.7 L 72 63 L 104.5 63 L 104.5 71.2 L 62.5 71.2 Z M 112 65.3 L 116.8 57.3 Q 120.4 60.3 124.9 62.2 A 23.348 23.348 0 0 0 130.27 63.71 A 32.118 32.118 0 0 0 135.4 64.1 A 27.981 27.981 0 0 0 139.947 63.754 Q 142.37 63.354 144.331 62.494 A 13.701 13.701 0 0 0 146.8 61.1 Q 150.848 58.209 150.995 53.366 A 12.116 12.116 0 0 0 151 53 Q 151 50.9 150.4 49.1 A 7.214 7.214 0 0 0 149.438 47.23 Q 148.87 46.424 148.05 45.65 Q 146.779 44.451 144.768 43.253 A 33.644 33.644 0 0 0 143.15 42.35 A 51.221 51.221 0 0 0 140.647 41.132 Q 138.203 40.017 135 38.8 Q 130.866 37.192 127.698 35.614 A 55.037 55.037 0 0 1 125.85 34.65 A 29.576 29.576 0 0 1 122.846 32.78 Q 121.094 31.528 119.8 30.15 A 15.293 15.293 0 0 1 117.187 26.414 A 13.936 13.936 0 0 1 116.5 24.75 A 18.339 18.339 0 0 1 115.705 21.269 A 24.866 24.866 0 0 1 115.5 18 Q 115.5 14.3 117.05 11 A 15.944 15.944 0 0 1 121.091 5.717 A 18.684 18.684 0 0 1 121.65 5.25 A 20.424 20.424 0 0 1 125.765 2.711 A 26.899 26.899 0 0 1 129.15 1.4 A 29.368 29.368 0 0 1 134.231 0.308 A 39.853 39.853 0 0 1 139.3 0 A 52.816 52.816 0 0 1 145.001 0.293 A 38.808 38.808 0 0 1 150.4 1.25 Q 155.3 2.5 160.1 4.8 L 156.6 12.9 A 31.496 31.496 0 0 0 152.474 10.881 A 41.686 41.686 0 0 0 148.65 9.55 Q 144.1 8.2 139.1 8.2 A 27.711 27.711 0 0 0 135.07 8.475 Q 131.253 9.037 128.7 10.75 A 9.496 9.496 0 0 0 126.479 12.772 A 7.461 7.461 0 0 0 124.9 17.5 A 12.395 12.395 0 0 0 125.029 19.332 A 9.192 9.192 0 0 0 125.45 21.05 A 5.878 5.878 0 0 0 126.207 22.481 Q 126.627 23.074 127.219 23.651 A 11.219 11.219 0 0 0 127.65 24.05 Q 128.846 25.101 130.725 26.179 A 34.591 34.591 0 0 0 132.25 27 A 46.93 46.93 0 0 0 134.509 28.067 Q 136.884 29.119 140.1 30.3 A 89.068 89.068 0 0 1 144.515 32.104 Q 147.525 33.435 149.9 34.8 A 33.937 33.937 0 0 1 152.99 36.794 Q 154.492 37.89 155.667 39.047 A 19.029 19.029 0 0 1 156.3 39.7 A 17.193 17.193 0 0 1 158.724 43.017 A 14.737 14.737 0 0 1 159.75 45.3 A 18.723 18.723 0 0 1 160.697 49.709 A 22.892 22.892 0 0 1 160.8 51.9 Q 160.8 56.8 158.9 60.6 Q 157 64.4 153.65 67.05 A 21.611 21.611 0 0 1 148.472 70.052 A 26.983 26.983 0 0 1 145.6 71.05 A 34.832 34.832 0 0 1 138.759 72.268 A 41.937 41.937 0 0 1 135.4 72.4 Q 128.1 72.4 122.1 70.45 A 38.206 38.206 0 0 1 116.733 68.268 A 28.433 28.433 0 0 1 112 65.3 Z M 0 9.6 L 0 1.2 L 52.5 1.2 L 52.5 9.6 L 31 9.6 L 31 71.2 L 21.5 71.2 L 21.5 9.6 L 0 9.6 Z M 166.8 9.6 L 166.8 1.2 L 219.3 1.2 L 219.3 9.6 L 197.8 9.6 L 197.8 71.2 L 188.3 71.2 L 188.3 9.6 L 166.8 9.6 Z" vector-effect="non-scaling-stroke"/></g></svg>